<?xml version="1.0" encoding="utf-8"?>
<!-- Generator: Adobe Illustrator 20.1.0, SVG Export Plug-In . SVG Version: 6.00 Build 0)  -->
<svg version="1.1" id="Capa_1" xmlns="http://www.w3.org/2000/svg" xmlns:xlink="http://www.w3.org/1999/xlink" x="0px" y="0px"
	 viewBox="0 0 102 128.4" style="enable-background:new 0 0 102 128.4;" xml:space="preserve">
<path d="M98.7,29.8l2.2-0.9c4.3-6-5-14.7-5-14.7l0.6-1C97.8,0.3,87.2,0,87.2,0L85,1.6L69.6,1l-2.5-0.7l-4.4-0.1l-3.8,2
	c-7,3.2,3,7.5,3,7.5s2.2-1.6,0,1C59.6,13.3,62,15,62,15l0.2,2.4c-3.9,5.3-4.1,15.8-4.1,15.8l-1.4,4c-0.9,0-7.4,8.3-7.4,8.3
	c-10.2,1.4-15.7,5.1-18.6,8.3c-7.2-4.5-3.4,1-2,2.8c-0.8,1.4-1,2.4-1,2.4C21.3,64.6,18,73,18,73c-5.2,6-8,17.5-8,17.5
	c-1.2-0.7-5.4,3.9-5.4,3.9l-1.5,9.4C-0.4,105.8,0,117,0,117l6.9-0.2c2.2,0.1,1.2-10.5,1.2-10.5c1.6-0.3,2.3-4.7,2.3-4.7
	c1.7-6.7,23-18.8,23-18.8c7.5,2.9,10.1,0.2,10.1,0.2c-1.7,4.7,1.6,23.1,1.6,23.1l-0.6,12.2c-3.2,2.6-0.2,6.8-0.2,6.8l5.9,0.8
	c5-0.2,2.7-9.1,2.7-9.1l3.4,1.1c4.7-0.6-1.4-8.8-1.4-8.8l0.2-9.5c7.2,1.2,9.3-9.6,9.3-9.6c7.8,3.5,20-8.3,20-8.3l1.5,1.7l0.1,4.8
	c-2.9,4.6,3.4,28.9,3.4,28.9l-1,2c-2,3,1.1,4.1,1.1,4.1c-0.1,5.7,4.6,5.2,4.6,5.2c11.3-0.1,0.9-12.5,0.9-12.5l1.1-20.3
	c2.8-0.3,0-14.6,0-14.6c5.9-11-1.8-27.5-1.8-27.5c0.1-6.1-4.7-12-4.7-12l0.1-3.7C92.6,36.8,98.7,29.8,98.7,29.8"/>
</svg>
